<?xml version="1.0" encoding="UTF-8"?>
<svg id="Layer_2" data-name="Layer 2" xmlns="http://www.w3.org/2000/svg" viewBox="0 0 1273.91 190.69">
  <defs>
    <style>
      .cls-1 {
        fill: #fff;
      }
    </style>
  </defs>
  <g id="Layer_1-2" data-name="Layer 1">
    <g>
      <g>
        <path class="cls-1" d="M339.05,99.44c3.88,7.56,5.82,16.43,5.82,26.6s-1.94,18.69-5.82,26.32c-3.88,7.63-9.25,13.54-16.11,17.74-6.87,4.2-14.62,6.29-23.27,6.29-6.87,0-12.84-1.3-17.93-3.91-5.09-2.61-9.28-6.13-12.59-10.58l-2.67,13.35h-23.46V41.75h26.89v47.87c7.5-9.03,17.35-13.54,29.56-13.54,8.77,0,16.59,2,23.46,6.01,6.86,4,12.24,9.79,16.11,17.35ZM317.6,126.24c0-8.39-2.22-15.19-6.67-20.41s-10.3-7.82-17.54-7.82-13.03,2.58-17.35,7.72c-4.32,5.15-6.48,11.92-6.48,20.31s2.16,15.38,6.48,20.6c4.32,5.21,10.11,7.82,17.35,7.82s13.09-2.61,17.54-7.82,6.67-12.02,6.67-20.4Z"/>
        <path class="cls-1" d="M382.81,41.75v133.49h-26.89V41.75h26.89Z"/>
        <path class="cls-1" d="M400.26,152.55c-4.26-7.63-6.39-16.4-6.39-26.32s2.13-18.69,6.39-26.32c4.26-7.63,10.3-13.51,18.12-17.64,7.82-4.13,16.88-6.2,27.18-6.2s19.36,2.07,27.17,6.2c7.82,4.13,13.86,10.01,18.12,17.64,4.26,7.63,6.39,16.4,6.39,26.32s-2.13,18.85-6.39,26.41c-4.26,7.56-10.3,13.41-18.12,17.54-7.82,4.13-16.88,6.2-27.17,6.2s-19.36-2.07-27.18-6.2c-7.82-4.13-13.86-10.01-18.12-17.64ZM469.96,126.24c0-8.39-2.19-15.19-6.58-20.41s-10.33-7.82-17.83-7.82-13.25,2.61-17.64,7.82c-4.39,5.21-6.58,12.02-6.58,20.41s2.19,15.19,6.58,20.4c4.39,5.21,10.27,7.82,17.64,7.82s13.44-2.61,17.83-7.82,6.58-12.02,6.58-20.4Z"/>
        <path class="cls-1" d="M555.01,176.39c-10.17,0-19.07-2.07-26.7-6.2-7.63-4.13-13.51-10.01-17.64-17.64-4.13-7.63-6.2-16.4-6.2-26.32s2.07-18.85,6.2-26.41c4.13-7.56,10.04-13.41,17.73-17.54,7.69-4.13,16.62-6.2,26.79-6.2,13.1,0,23.77,3.34,32.04,10.01,8.26,6.67,13.35,15.92,15.26,27.75h-27.84c-1.14-4.83-3.43-8.68-6.87-11.54-3.43-2.86-7.69-4.29-12.78-4.29-6.99,0-12.59,2.61-16.78,7.82-4.2,5.21-6.29,12.02-6.29,20.41s2.1,15.19,6.29,20.4c4.19,5.21,9.79,7.82,16.78,7.82,5.21,0,9.57-1.46,13.06-4.39,3.5-2.92,5.75-6.93,6.77-12.01h27.65c-1.78,11.95-6.83,21.33-15.16,28.13-8.33,6.8-19.1,10.2-32.32,10.2Z"/>
        <path class="cls-1" d="M640.05,41.75v77.23l38.52-41.76h30.13l-34.9,38.33,36.81,59.69h-31.09l-24.79-39.67-14.68,15.83v23.84h-26.89V41.75h26.89Z"/>
        <path class="cls-1" d="M741.69,49.76v27.46h22.31v22.69h-22.31v42.91c0,3.43.73,5.91,2.19,7.44s3.91,2.29,7.34,2.29h13.92v22.69h-22.31c-18.69,0-28.03-9.34-28.03-28.03V49.76h26.89Z"/>
        <path class="cls-1" d="M801.57,51.48c0,4.32-1.46,7.95-4.39,10.87-2.92,2.92-6.61,4.39-11.06,4.39s-8.17-1.46-11.16-4.39c-2.99-2.93-4.48-6.55-4.48-10.87s1.49-7.91,4.48-10.77c2.99-2.86,6.71-4.29,11.16-4.29s8.14,1.43,11.06,4.29c2.92,2.86,4.39,6.45,4.39,10.77ZM799.47,77.22v98.02h-26.89v-98.02h26.89Z"/>
        <path class="cls-1" d="M861.07,176.39c-10.17,0-19.07-2.07-26.7-6.2-7.63-4.13-13.51-10.01-17.64-17.64-4.13-7.63-6.2-16.4-6.2-26.32s2.07-18.85,6.2-26.41c4.13-7.56,10.04-13.41,17.73-17.54,7.69-4.13,16.62-6.2,26.79-6.2,13.1,0,23.78,3.34,32.04,10.01,8.26,6.67,13.35,15.92,15.26,27.75h-27.84c-1.15-4.83-3.43-8.68-6.87-11.54-3.43-2.86-7.69-4.29-12.78-4.29-6.99,0-12.59,2.61-16.78,7.82s-6.29,12.02-6.29,20.41,2.1,15.19,6.29,20.4,9.79,7.82,16.78,7.82c5.21,0,9.57-1.46,13.06-4.39,3.5-2.92,5.75-6.93,6.77-12.01h27.65c-1.78,11.95-6.83,21.33-15.16,28.13-8.33,6.8-19.1,10.2-32.32,10.2Z"/>
        <path class="cls-1" d="M946.11,41.75v77.23l38.52-41.76h30.13l-34.9,38.33,36.81,59.69h-31.08l-24.79-39.67-14.68,15.83v23.84h-26.89V41.75h26.89Z"/>
        <path class="cls-1" d="M1035.45,82.28c7.44-4.13,16.05-6.2,25.84-6.2s18.66,1.94,26.22,5.82,13.48,9.34,17.74,16.4c4.26,7.06,6.45,15.35,6.58,24.89,0,3.43-.26,6.48-.76,9.15h-71.13v.76c.64,7.12,2.92,12.71,6.86,16.78,3.94,4.07,9.34,6.1,16.21,6.1,5.47,0,10.01-1.18,13.64-3.53,3.62-2.35,6.01-5.82,7.15-10.39h26.51c-1.02,6.48-3.5,12.33-7.44,17.55-3.94,5.21-9.15,9.31-15.64,12.3s-13.92,4.48-22.31,4.48c-10.93,0-20.37-2.03-28.32-6.1-7.95-4.07-14.05-9.88-18.31-17.45-4.26-7.56-6.39-16.37-6.39-26.41s2.07-19.04,6.2-26.6c4.13-7.56,9.92-13.41,17.35-17.54ZM1077.6,100.97c-4-3.24-9.06-4.86-15.16-4.86s-10.77,1.69-14.78,5.05c-4,3.37-6.39,7.91-7.15,13.64h44.43c-.89-5.98-3.34-10.58-7.34-13.83Z"/>
        <path class="cls-1" d="M1112.39,99.92v-22.69h16.21v-27.46h26.89v27.46h22.31v22.69h-22.31v42.91c0,3.43.73,5.91,2.19,7.44,1.46,1.53,3.91,2.29,7.34,2.29h13.92v22.69h-22.31c-18.69,0-28.03-9.34-28.03-28.03v-47.29h-16.21Z"/>
        <path class="cls-1" d="M1214.6,153.13c3.81,2.67,8.71,4,14.68,4s10.23-.92,13.54-2.76c3.31-1.84,4.96-4.48,4.96-7.91,0-2.54-.76-4.45-2.29-5.72-1.53-1.27-3.69-2.19-6.48-2.76-2.8-.57-7.37-1.24-13.73-2-8.65-1.14-15.83-2.61-21.55-4.39-5.72-1.78-10.3-4.58-13.73-8.39-3.43-3.81-5.15-8.9-5.15-15.26s1.75-11.98,5.24-16.88c3.5-4.9,8.42-8.68,14.78-11.35,6.36-2.67,13.67-4,21.93-4,13.35.13,24.13,2.99,32.32,8.58,8.2,5.59,12.62,13.35,13.25,23.27h-25.55c-.38-3.69-2.32-6.71-5.82-9.06s-7.98-3.53-13.44-3.53c-5.09,0-9.19.95-12.3,2.86-3.12,1.91-4.67,4.45-4.67,7.63,0,2.29.83,4.01,2.48,5.15,1.65,1.15,3.81,1.97,6.48,2.48,2.67.51,7.12,1.08,13.35,1.72,13.22,1.53,23.36,4.36,30.42,8.49,7.06,4.13,10.58,11.22,10.58,21.26,0,6.36-1.88,11.95-5.63,16.78-3.75,4.83-8.96,8.55-15.64,11.16-6.67,2.61-14.4,3.91-23.17,3.91-13.6,0-24.66-3.02-33.18-9.06-8.52-6.04-13.03-14.27-13.54-24.69h25.55c.38,4.32,2.48,7.82,6.29,10.49Z"/>
      </g>
      <g>
        <polygon class="cls-1" points="47.67 47.67 47.67 0 0 0 0 95.35 95.35 95.35 95.35 47.67 47.67 47.67"/>
        <polygon class="cls-1" points="95.35 95.35 95.35 143.02 0 143.02 0 190.69 95.35 190.69 143.02 143.02 143.02 95.35 95.35 95.35"/>
        <rect class="cls-1" x="119.18" y="23.84" width="47.67" height="47.67" transform="translate(39.37 157.14) rotate(-65)"/>
      </g>
    </g>
  </g>
</svg>